<svg width="40" height="40" viewBox="0 0 40 40" fill="none" xmlns="http://www.w3.org/2000/svg">
  <path d="M37.74 25.85H2.26A2.23 2.23 0 0 0 0 28.03v1.77c0 1.17 1 2.13 2.26 2.13h.52v.5a5.12 5.12 0 0 0 5.2 5.02h24.04c2.89 0 5.2-2.28 5.2-5.01v-.51h.52c1.21 0 2.26-.96 2.26-2.18v-1.77c0-1.12-1-2.13-2.26-2.13Zm-2.04 6.59c0 1.92-1.63 3.49-3.63 3.49H7.93c-2 0-3.63-1.57-3.63-3.5v-.5h31.4v.5Zm2.73-2.69c0 .36-.32.66-.69.66H2.26a.68.68 0 0 1-.69-.66v-1.77c0-.3.32-.61.69-.61H37.8c.36 0 .68.3.68.66v1.72h-.05ZM8.5 21.75l2.84 2.02 2.89-2.02 2.88 2.02L20 21.75l2.83 2.02 2.9-2.02 2.88 2.02 2.89-2.02 2.88 2.02 3.31-2.38-.9-1.21-2.4 1.67-2.9-2.03-2.88 2.03-2.89-2.03-2.89 2.03L20 19.82l-2.89 2.03-2.88-2.03-2.9 2.03-2.83-2.03-2.88 2.03-2.42-1.67-.94 1.21 3.36 2.38 2.88-2.02ZM37.22 18.3c0-.3.05-1.31 0-1.52C36.85 8.88 29.29 2.55 20 2.55c-9.3 0-16.9 6.33-17.27 14.23v1.52h34.49ZM20 4.07c8.4 0 15.33 5.67 15.64 12.71H4.3C4.67 9.74 11.6 4.07 20 4.07Z" fill="#81B3D2"/>
  <path d="M20 11.16c.58 0 1.05-.45 1.05-1.01S20.58 9.14 20 9.14c-.58 0-1.05.45-1.05 1 0 .57.47 1.02 1.05 1.02ZM15.8 8.68c.58 0 1.05-.45 1.05-1.01s-.47-1.02-1.05-1.02c-.58 0-1.05.46-1.05 1.02s.47 1 1.05 1ZM24.2 8.68c.58 0 1.05-.45 1.05-1.01s-.47-1.02-1.05-1.02c-.58 0-1.05.46-1.05 1.02s.47 1 1.05 1Z" fill="#81B3D2"/>
</svg>
