<svg width="40" height="40" viewBox="0 0 40 40" fill="none" xmlns="http://www.w3.org/2000/svg">
  <path d="M15.402 34.389h8.353V22.23h-8.353v12.158Zm6.839-1.475h-5.325v-9.208h5.273v9.208h.052Z" fill="#81B3D2"/>
  <path d="m38.404 21.628 1.096-1.069-5.169-5.036V1.788h-7.205v6.715l-7.152-6.918L.5 20.61l1.096 1.069L5.67 17.71V36.94H3.633v1.475h33.361V36.94h-2.663V17.66l4.073 3.968ZM28.64 3.314h4.124v10.734l-4.124-4.019V3.314Zm4.176 33.575H7.235V16.185L19.974 3.72l12.791 12.464v20.704h.052Z" fill="#81B3D2"/>
  <path d="M15.558 15.006c0 2.188 1.828 3.968 4.02 3.968 2.245 0 4.073-1.78 4.073-3.968 0-2.187-1.828-3.917-4.073-3.917s-4.02 1.73-4.02 3.917Zm4.02-2.543c1.41 0 2.61 1.119 2.61 2.543 0 1.374-1.148 2.544-2.61 2.544-1.41 0-2.61-1.12-2.61-2.544 0-1.373 1.2-2.543 2.61-2.543ZM10.39 22.23H8.822v1.985h1.566V22.23ZM13.47 22.23h-1.566v1.985h1.566V22.23ZM10.39 25.282H8.822v1.984h1.566v-1.984ZM13.47 25.282h-1.566v1.984h1.566v-1.984ZM27.044 22.23h-1.566v1.985h1.566V22.23ZM30.177 22.23H28.61v1.985h1.566V22.23ZM27.044 25.282h-1.566v1.984h1.566v-1.984ZM30.177 25.282H28.61v1.984h1.566v-1.984Z" fill="#81B3D2"/>
</svg>
