<svg xmlns="http://www.w3.org/2000/svg"><style>:root svg:not(:target){display:none}</style><svg fill="none" id="htmlacademy-logo" viewBox="0 0 27 35"><path d="M13.6 0h-.1L0 1.4v24.7l13.5 8 13.4-8V1.4L13.6 0ZM25 12.1 13.5 5.3v-.1h-.1l-.1-.1v.1L1.9 12.1v-9l11.5-1.2L25 3.1v9ZM13.4 6.8l11.5 6.7-4.5 2.6-7.1-4.2v1.4l5.9 3.5-.9.5-5-3v1.4l3.8 2.3-.8.5-3-1.8v1.4l1.9 1.1-1.8 1.1L2 13.6l11.4-6.8ZM1.9 15.1l11.4 6.8v1l-7.9-4.7v1.4l8 4.8v1.1l-8-4.7v1.4l8 4.8 8.1-4.9v-5.2l3.4-2v10l-11.5 6.9L1.9 25v-9.9Z" fill="#000"></path></svg><svg id="logo" viewBox="0 0 185 96"><path d="M185 0H0l79.81 90.101c7.039 7.865 18.44 7.865 25.479 0L185 0Z" fill="currentcolor"></path><path d="M42.83.697 92.004 58.84l48.878-57.745L42.83.697Z" fill="#23A9E1"></path><path d="M120.954 17.224c-5.056 0-10.013.1-15.07.1 5.949-6.87 8.626-6.173 15.07-.1ZM80.107 22.6h26.471c-1.983-1.195-6.642-7.069-9.22-4.879-.198.2-7.436-8.86-12.195-4.48-4.163 3.784-6.047-.497-10.806 2.49-5.255 3.583 3.172 5.674 5.75 6.869Z" fill="#fff"></path><path d="M92.302 0H41.838v22.4l50.166 61.23.298-.398 50.265-60.134V0H92.302ZM54.429 1.792h5.453v17.124l-5.453-6.471V1.792Zm-.793 9.757L48.68 5.675V1.792h4.957v9.757ZM72.771 8.86 67.12 1.792h5.65v7.069Zm-6.544 3.783L60.675 1.792h5.552v10.852Zm-5.65-9.259 5.452 10.653c-2.776 2.09-4.66 3.982-5.453 4.878V3.385Zm6.443-.498 5.552 6.87a41.788 41.788 0 0 0-3.073 1.891 53.637 53.637 0 0 0-2.479 1.793V2.886Zm6.544-.199 4.759 4.182c-1.686.696-3.272 1.493-4.76 2.29V2.687Zm5.552 3.883-5.354-4.779h5.949v4.58c-.298 0-.397.1-.595.199Zm18.936-4.779h4.957l-4.957 2.39v-2.39Zm-5.75 0h4.362l-4.362 2.09v-2.09Zm-.893 1.991-4.164-1.99h4.164v1.99Zm-5.452.498L80.9 1.792h5.057v2.489Zm-5.552-1.892 4.66 2.29c-1.587.399-3.173.797-4.66 1.295V2.389Zm6.345 0 3.37 1.593c-1.19.1-2.28.2-3.47.399V2.389h.1Zm10.31.1V4.38c-1.09-.2-2.18-.3-3.37-.399l3.37-1.493Zm6.445-.1v3.684c-1.487-.498-3.074-.995-4.759-1.394l4.759-2.29Zm.694-.597h5.849l-5.353 4.779c-.199-.1-.298-.1-.496-.2V1.793Zm13.483 0h5.552l-5.552 10.852V1.792Zm-6.543 0h5.651l-5.651 6.97v-6.97Zm-.793.896V9.16c-1.487-.796-3.074-1.593-4.759-2.29l4.759-4.18Zm6.543.2V13.34c-.694-.498-1.487-.996-2.28-1.593-.992-.697-2.181-1.394-3.371-2.09l5.651-6.77Zm6.345.497v15.133c-1.09-.996-2.875-2.688-5.453-4.58l5.453-10.553Zm.793 15.93V1.791h5.453v11.35l-5.453 6.172c.099.1 0 .1 0 0Zm6.246-17.523h4.957v4.68l-4.957 5.774V1.792Zm-82.288 0V4.68l-2.479-2.887h2.479Zm12.69 18.12.1.1s3.569-3.883 9.12-7.567c5.255-3.485 13.187-7.567 22.11-7.467 8.823 0 16.953 4.181 22.108 7.666 5.552 3.684 9.22 7.467 9.319 7.566l-3.866 4.48c-6.841.897-11.798 6.074-18.441 4.979-3.37-.598-3.47-2.49-4.461-4.48-.694-1.494-1.884-1.295-3.47-1.892-1.388-.598-2.28-1.693-5.155-1.095-2.479.597-2.776 4.48-5.949 4.28-1.685-.099-1.785-2.488-4.164-5.475-6.246-7.567-12.095-6.471-16.061.498l30.04 35.742-31.23-37.335Zm75.249-14.436V1.792h3.173l-3.173 3.684Z" fill="#491213"></path><path d="m87.94 70.588 4.064-6.472 3.966 6.472-3.966 6.47-4.065-6.47Z" fill="#23A9E1"></path><path d="M64.938 32.158c.496.597.893 1.294.793 2.09-.099.598-.892 1.593-.297 1.792.694-.896 1.487-1.891 2.181-2.787-.595-.2-5.353-5.775-5.353-6.472-1.091.598-2.083 1.195-3.173 1.693.198.697 1.289 0 1.884 0 .793.1 1.388.597 1.983 1.195-1.686 1.393-5.85 4.978-6.346 5.077-.198 0-1.09-.597-1.09-.1 0 .3.892.996.991 1.195.694.896 1.487 1.792 2.181 2.688.595-.298-.099-.697.199-1.194.297-.398 4.858-4.281 6.047-5.177Zm-5.254-6.969c.396-.1.595.398.991-.1-.793-.996-1.586-1.892-2.38-2.887-.396-.399-.792-.896-.693 0 .099.597-6.048 5.675-6.444 5.774-.496.2-.794-.398-1.091.1.694.896 1.487 1.692 2.181 2.588.198.299.496.598.694.896.297.299.198-.697.198-.597-.099-.498.496-.896.893-1.195 1.487-1.294 5.254-4.58 5.65-4.58Zm-8.724-.896c-1.785.497-3.669-.2-4.165-1.992-.495-1.792.595-3.783 2.082-4.779 1.388-.995 3.57-.995 4.363.797.297.796.198 1.692-.1 2.489-.198.498-.594.995.1 1.294.892-1.095 1.685-2.19 2.577-3.285-1.09-.598-1.487-1.693-2.28-2.589-.892-1.095-2.082-2.09-3.47-2.29-2.875-.398-5.552 2.589-5.75 5.177-.1 1.494.396 2.788 1.19 3.983.793.995 1.883 1.593 2.379 2.787.297.1 2.677-.995 3.272-1.294-.1-.1-.1-.199-.199-.299-.694.2 0 0 0 0Zm38.962 36.239c-1.19-.796-3.965-4.68-4.56-5.277-.1-.1-.198-.298-.298-.398 0 0-.297.2-.198.2-.198.099.1.597-.1.895-.792 1.195-5.75 4.978-5.948 5.177-.594.399-1.19-.199-1.487.3.694.895 2.776 3.484 2.974 3.583.496.1.1-.796.199-.995.099-.399 2.578-2.39 3.47-3.186.297-.299.694.398.892.697.297.497.496.995.297 1.593-.099.398-.694.896-.297 1.194.595-.697 2.38-2.787 2.578-2.986.297-.3-.595 0-.496-.1-.397.2-.694.2-1.09 0-.1-.1-1.091-1.095-.992-1.195.397-.398.991-.995 1.487-1.095.892-.199 1.586 1.493 1.686 2.09.099.598.099 1.195-.1 1.793-.099.398-.495.697 0 .896.694-.996 1.388-1.892 2.082-2.887.199-.2 0-.299-.099-.299-.099-.1.199 0 0 0ZM79.81 56.35c2.18-1.891 2.478-5.077.793-7.267-1.884-2.49-5.354-3.087-7.733-1.095-2.181 1.891-2.479 4.977-.793 7.267 1.983 2.688 5.155 2.987 7.733 1.095 1.19-.895-.1.1 0 0Zm-.496-4.679c-.595 1.494-2.181 3.087-3.668 3.684-1.785.697-3.074-.796-2.38-2.589.694-1.493 2.181-3.086 3.669-3.683 1.883-.697 3.073.896 2.379 2.588-.396.896.1-.199 0 0Zm-5.849-9.856c.495.1.892.498 1.288 0-.694-.896-1.487-1.792-2.18-2.589-.595.299 0 .498-.199.996-.198.398-2.578.796-3.172.896.198-.597.892-2.589 1.19-2.788.495-.398.892.398 1.288-.1l-2.677-3.285c-.297-.398-.595-.995-.991-.697 0 0 0 1.494-.1 1.693-.099.199-.892 3.584-1.883 4.48-.496.398-2.181 1.892-2.677 2.09-.496.2-.793-.597-1.19 0 .794.996 1.686 1.992 2.479 2.988.1.1.595.896.793.896.496.1.1-.896.1-1.096.197-.398 2.478-2.688 3.47-2.887 1.189-.199 2.974-.697 4.46-.597.298.1-.396 0 0 0Z" fill="#fff"></path><path d="M67.219 22.8c-3.966-.2-2.38-3.983.396-4.78 2.578-.796 8.03 1.693 9.716 3.385-2.776.896-6.345.697-9.32.896-.197-3.186-.99-2.09-.792.498Zm9.418 12.444c-8.526-.1-2.776-13.241.1-12.445 3.37 1.095 2.974 12.544-.1 12.445Zm6.048-4.281c-.793 2.489-2.38 2.987-2.181-.1.198-3.484 2.478-2.688 4.858-3.982 1.983-1.095 3.073-5.177 6.543-2.788 1.586 1.096 3.371.2 3.867 1.792 0-.1-4.462 10.255-1.983 10.255-4.957 0-2.776-5.874-.892-9.856-1.785.896-4.76 6.67-2.38 7.566-1.289 1.693-5.155 3.883-7.138 2.29-1.487-1.095-.694-3.186-.694-5.177Zm4.065 9.557c-3.47.996-8.03-1.194-2.479-2.29 3.47-.696 7.138.698 2.479 2.29.099 0-.1 0 0 0Zm4.362-.099c-.694-1.693.595-3.584 2.677-2.19 1.784 1.194-.892 3.086-2.677 2.19ZM88.138 45c-2.38-.696-10.41-.597-5.156-2.787 1.686-.597 10.113.2 5.156 2.788Zm10.41 3.286c-1.388-1.194-2.876-1.294-4.164 0-1.785-3.285-8.23-2.19-11.302-2.688 1.586 4.082 14.672 4.879 15.466 2.688Zm-1.884 2.489c-3.173-.1-6.643-.597-9.518.1 1.884.498 6.345 1.792 2.181 2.887 1.488 2.19 3.966 1.991 5.552.1-.694-.3-.991-.697-1.586-1.096 1.586-.298 3.173-1.194 3.371-1.99Zm3.569-3.883c-5.254-3.086-3.966-5.376.397-7.566 2.28-1.095 7.237-5.177 9.319-3.883-3.272 3.883-6.543 7.666-9.716 11.45Z" fill="#DC6243"></path><path d="M96.466 39.625c-4.462-4.58 6.642-4.182 8.427-5.775 1.289.398 10.707-8.263 12.987-7.666-1.685 1.892-5.155 8.064-7.733 8.064-1.982 0-3.965-.298-5.452 1.096-2.182 2.09-5.85 3.086-8.23 4.28Z" fill="#F49774"></path><path d="M97.953 34.05c-2.479 1.294-4.759-3.884-.496-3.386 2.776.299 5.651-.199 8.229.2-1.983 2.29-4.66 3.583-7.733 3.185Z" fill="#F4B1A4"></path><path d="M110.445 52.269c.198.597.297 1.294.198 1.99-.099.897-.991 2.888-2.181 2.29-1.19-.597-2.181-1.692-3.173-2.588.794-.896 1.488-1.692 2.876-1.294.396.1.694 0 .297-.299-.397-.199-3.073-1.991-3.272-1.792-.297.299.496.896.199 1.493-.199.399-.595.797-.893 1.195-.694-.597-1.883-1.294-1.09-2.29.495-.697 1.289-1.194 2.082-1.294.595-.1 1.784.398 1.983-.2-1.091-.497-2.182-.995-3.272-1.592.198.797-3.272 4.48-4.065 5.476-.099.1-.694.597-.694.796 0 .399.595.1.694.1.496-.2 6.742 5.077 6.94 5.476.099.298-.198.597 0 .697 0 0 .198.199.297.199.397-.498 4.462-5.974 5.354-6.173a119.349 119.349 0 0 1-2.379-3.684c-.595.299 0 .996.099 1.494Zm-6.147 6.671c-2.082-1.295-5.552 1.293-6.048 1.492-.991.498-1.784-.497-1.289-1.493.496-.796 1.388-1.195 2.28-1.294.298 0 1.29.199 1.488 0 .099-.2.198-.2 0-.299-.892-.597-1.686-1.195-2.578-1.692-.198 1.095-1.388 1.692-2.082 2.389-.793.896-1.487 1.892-1.487 3.186 0 1.095.694 2.09 1.685 2.688 1.091.597 2.28.1 3.272-.498.595-.398 1.289-.896 1.884-1.194.991-.498 2.28-.1 1.983 1.294-.298 1.095-1.388 2.09-2.38 2.29-.595.199-1.289.1-1.883-.1-.397-.1-.992-.697-1.19-.1 1.19.797 2.28 1.693 3.47 2.49.099-.797.496-1.096 1.09-1.593a13.288 13.288 0 0 0 1.983-2.091c1.19-1.693 1.587-4.082-.198-5.476Z" fill="#fff"></path><path d="M104.298 58.94c.991.596-.595-.499 0 0Zm36.385-39.426c-.694.697-8.328-2.29-8.923-2.788-.297-.1-.297-1.294-.694-.796l-1.189 1.493c-.397.498-.793.996-1.289 1.493-.298.299-.496.498 0 .697.793-.398 5.354 7.268 4.957 8.463-.694.398-6.841-5.078-7.039-5.377-.099-.1.297-.995-.198-.896-.199 0-.694.896-.893 1.096-.297.398-.595.697-.892 1.095.297.498.496 0 .991 0 .397.1 1.785 1.294 2.182 1.692-.694 0-2.677.1-2.876.1-.892.1-.396-.697-.991-.896-.793.896-1.487 1.792-2.28 2.787-.397.498-.893 1.096-1.289 1.593-.099.1 0 0 0 .1.297.299.099.2.595 0 .495-.2 6.543 4.878 6.741 5.177.397.398-.198.996.397 1.195.595-.697 1.19-1.494 1.785-2.19.099-.1.099-.1 0-.2-.397-.398-.496.2-.992.2-.496-.1-4.362-3.386-5.849-4.58 1.784-.1 7.237-.299 8.129-.299.298 0 1.091.896 1.091 1.195-.099.398-.496.597.099.796.496-.597.992-1.095 1.487-1.692l.199-.299c.099-.1.099-.1.198-.299l.198-.199c.397-.498 1.785-1.99 1.586-2.09-.495-.399-.694.497-1.288-.1-.298-.2-1.19-1.792-1.388-2.19-.298-.399.594-.896.991-1.096.793-.497 3.173-1.194 3.47.3 0 .298-.297.497-.099.696 0 0 .198.2.297.2.199-.2 2.38-2.788 3.272-3.983a2.729 2.729 0 0 1-.496-.398Zm-7.336 2.19c.099 0 .198-.1 0 0a6.989 6.989 0 0 0-.992.796c-.495-.896-.991-1.792-1.586-2.688 1.19.498 2.379.996 3.47 1.494-.198.1-.496.199-.892.398Zm-9.617 11.151c-2.38-1.992-5.552-1.394-7.535.796-1.884 2.29-1.685 5.675.595 7.566 2.28 1.892 5.651 1.394 7.535-.796 1.883-2.29 1.784-5.675-.595-7.566Zm-.298 6.57s0 .1 0 0c-1.288 1.295-3.37.1-4.461-.697-1.091-.796-3.073-2.588-1.884-4.081 1.091-1.295 3.074-.2 4.164.497 1.19.797 3.371 2.589 2.281 4.182l-.1.1Z" fill="#fff"></path><path d="M123.73 32.855c1.19.995-.298-.2 0 0Zm-.298 6.671c0-.1 0-.1 0 0l.1-.1c-.1 0-.1.1-.1.1Zm-6.246 2.388c.1.1.298.3 0 0-2.875-2.19-6.245-1.593-8.427 1.096a9395.1 9395.1 0 0 1-2.974 3.584c.397.498.793-.1 1.289.199.397.299 6.147 5.077 6.246 5.376.198.498-.297.498.099.896.198.1 4.461-5.177 4.858-6.173.892-1.792.297-3.683-1.091-4.978Zm-1.288 6.77c-.199.3 0 .1-.694.697-.298.3-6.345-4.679-6.147-4.878.793-.896 2.578-1.593 3.569-1.294 2.181.497 5.155 3.186 3.272 5.475Z" fill="#fff"></path></svg><svg fill="none" id="sedona" viewBox="0 0 229 39"><path d="M27.32 26.64c0 .25-.05.45-.05.65-.26 2.01-.9 3.97-1.96 5.78a11.46 11.46 0 0 1-4.26 4.22c-.65.3-1.35.55-2.05.8-.7.2-1.4.4-2.1.56-.61.1-1.16.2-1.76.25-.6.05-1.16.1-1.7.1h-.6c-2.31-.1-4.62-.6-6.88-1.56-2.2-1-4.2-2.26-5.96-3.87l4.66-7.49.1.1.1.1a24.24 24.24 0 0 0 3.56 3.22c1.3.96 2.86 1.5 4.56 1.61.05 0 .1 0 .15.05.05 0 .1.05.15.05.05 0 .1 0 .15.05.05 0 .1.05.15.05.15 0 .3 0 .5-.05.15 0 .35-.05.5-.1a4.77 4.77 0 0 0 3.06-2.01c.05-.1.1-.15.1-.25.05-.1.1-.15.1-.25.1-.25.15-.5.15-.76.05-.25.05-.45.05-.65 0-1.06-.45-1.96-1.35-2.66-.9-.7-1.9-1.26-2.96-1.66-.45-.15-.85-.3-1.2-.4-.4-.1-.75-.2-1.1-.26-.05 0-.1 0-.1-.05-.05 0-.1-.05-.1-.05-1.9-.45-3.71-1.2-5.37-2.26a8.17 8.17 0 0 1-3.75-5.68c-.1-.45-.16-.85-.2-1.35-.06-.15-.06-.3-.06-.46v-.45c0-.3 0-.6.05-.95 0-.3.05-.6.15-.96.1-.75.3-1.56.6-2.31.26-.75.6-1.46 1.06-2.11A10.98 10.98 0 0 1 8.52 1.2C10.37.45 12.43 0 14.53 0c.5 0 1 .05 1.56.1.5.05 1.05.15 1.6.2 1.4.25 2.8.6 4.16 1.16 1.36.55 2.66 1.2 3.81 1.9l-3.2 7.2a28 28 0 0 0-3.31-2.07 7.95 7.95 0 0 0-3.76-.85h-.5c-.9.1-1.7.5-2.51 1.2-.75.7-1.15 1.41-1.15 2.22 0 .1 0 .25.05.35 0 .1.05.25.15.35.1.25.2.5.4.75.2.26.4.46.65.66.45.35 1.05.65 1.85.95.8.3 1.66.56 2.56.86.75.2 1.45.4 2.16.55.7.15 1.3.35 1.75.5a9.08 9.08 0 0 1 4.91 3.87c1.1 1.81 1.66 3.72 1.7 5.73v.25c-.04.25-.04.5-.1.76Zm30.07 3.11v8.35H34.63V.9H57.4v8.15H44.6v6.48h12.03v7.94H44.6v6.28h12.78Zm38.39-1.45a15.79 15.79 0 0 1-5.16 6.28 16.31 16.31 0 0 1-5.92 2.56c-2.15.45-4.3.75-6.46.85-.6.06-1.26.06-1.86.06H64.45V.85h12.58a36.98 36.98 0 0 1 7.97.9c2.06.46 3.91 1.32 5.62 2.57a15.28 15.28 0 0 1 5.06 6.03c1.2 2.52 1.9 5.08 2.05 7.7.05.24.05.44.05.7v1.5c-.15 2.82-.8 5.48-2 8.05Zm-8.22-9.2c0-.15 0-.3-.05-.45-.1-1.46-.45-2.92-1.05-4.28a8.44 8.44 0 0 0-2.56-3.31c-.8-.66-1.7-1.1-2.7-1.36-1-.25-2.01-.35-3.06-.4h-3.76v20.5c.1 0 .25 0 .4.05.15 0 .25.05.4.05.15 0 .3 0 .4.05.1 0 .25.05.35.05.4 0 .8 0 1.2-.05.46 0 .86-.05 1.2-.1 1.01-.1 2.01-.25 2.97-.5.95-.25 1.85-.7 2.6-1.2a7.85 7.85 0 0 0 2.76-3.67c.6-1.56.9-3.17.9-4.83v-.55Zm54.93 1.96c0 .4-.05.8-.15 1.2-.1.8-.2 1.61-.45 2.42a18.88 18.88 0 0 1-8.42 11.16 20.93 20.93 0 0 1-10.88 3.11c-.25 0-.55 0-.8-.05-.25 0-.5-.05-.8-.05a21.3 21.3 0 0 1-7.67-2.16 18.93 18.93 0 0 1-7.67-7.34 19.39 19.39 0 0 1-2.8-9.9c0-.5 0-1 .05-1.5.05-.51.1-1.06.25-1.57.2-1 .45-2 .8-3.06.35-1 .75-2.01 1.3-2.97a18.44 18.44 0 0 1 7.47-7.59A20.26 20.26 0 0 1 124.1.2c.5.05.95.1 1.4.1a21.14 21.14 0 0 1 8.32 3.02 18.33 18.33 0 0 1 6.42 7.13 20.36 20.36 0 0 1 2.25 9.3v1.3Zm-10.12-2.11c0-.25-.05-.46-.05-.7-.2-1.66-.7-3.27-1.5-4.83a9 9 0 0 0-3.36-3.62c-.4-.2-.76-.35-1.16-.5-.4-.15-.75-.3-1.15-.4-.4-.1-.75-.16-1.15-.2a8.87 8.87 0 0 0-6.62 1.76 9.88 9.88 0 0 0-3.5 4.97c-.06.1-.06.15-.1.25 0 .1-.06.15-.06.25l-.3 1.06c-.1.35-.15.75-.25 1.15-.05.25-.05.56-.1.8 0 .26-.05.51-.05.81v.45c0 .15 0 .3.05.46.1 2.06.75 4.02 1.9 5.88a8.08 8.08 0 0 0 4.77 3.66c.25.1.45.16.7.2l.75.16c.25.05.45.05.7.1.25 0 .45.05.7.05 2.06 0 3.91-.6 5.57-1.86a9.9 9.9 0 0 0 3.86-6.13c.1-.46.15-.86.2-1.31.05-.25.05-.55.1-.8 0-.26.05-.5.05-.76v-.9Zm43.85 19.15-14.08-19.2c-.4-.46-.75-1-1.1-1.66-.35-.65-.7-1.3-1-2.01-.26-.5-.46-1-.66-1.51a18 18 0 0 0-.6-1.36 42.83 42.83 0 0 1 .6 7.4V38.1h-9.77V.9h9.77L173.37 20c.35.56.7 1.1 1 1.71.35.6.65 1.2.95 1.86.25.5.45 1 .7 1.5.25.51.45 1.01.7 1.47l-.15-1.21-.15-1.2a18.2 18.2 0 0 1-.15-2.42c-.05-.8-.05-1.66-.05-2.51V.95h9.73v37.2h-9.73v-.05Zm42.66 0-1.86-6.69H202.7l-1.9 6.74h-10.03L203.49.95h12.63L229 38.15h-10.12v-.05Zm-7.78-26.2c-.2-.6-.4-1.2-.55-1.86l-.46-1.9c-.1-.26-.15-.46-.15-.66-.05-.2-.1-.4-.1-.6l-.15.6-.15.65c-.05.1-.05.15-.05.2 0 .05 0 .15-.05.2-.1.6-.25 1.16-.4 1.71l-.45 1.66-3.76 12.31h10.08l-3.81-12.3Z" fill="#fff"></path></svg><svg fill="none" id="welcome-text" viewBox="0 0 282 214"><path d="m101.385 42.804-.123.123c-.859.917-1.84 1.345-2.761 1.345l1.718-2.996c1.105-1.896.061-3.73-1.657-3.73-1.412 0-2.516.55-3.56 2.384l-.92 1.59-.737 1.284-.122.123c-1.35 1.529-2.64 2.752-3.437 2.752-.43 0-.614-.306-.184-.979l3.927-6.849h1.473l.553-.856H94.02L95.74 34h-1.841l-1.719 2.996h-1.657l-.552.856h1.657l-3.682 6.36c-.798 1.345-.246 2.63 1.227 2.63 1.044 0 2.27-.796 3.376-1.896 0 2.323 3.252 2.813 5.216.305h.43c1.104 0 2.823-.672 3.743-1.773 0-.306-.307-.55-.552-.673Zm-3.928.123h-.061c-.614 0-1.105.489-1.105 1.1 0 .245.062.428.184.612v.061c-.859 1.468-2.945 1.223-1.902-.734l1.411-2.385.86-1.467c1.288-2.201 3.068-1.345 1.963.55l-1.35 2.263Zm29.397-.123-.123.122c-1.35 1.53-3.007 2.752-4.296 2.752-1.104 0-1.779-.734-.982-2.201l.184-.306c1.166.49 3.437.245 4.787-2.14l.246-.428c.982-1.712.061-2.935-1.473-2.935-1.473 0-2.639.795-3.437 2.14l-1.78 3.057-.122.123c-1.35 1.528-2.639 2.751-3.437 2.751-.43 0-.614-.305-.184-.978l2.639-4.647c.798-1.407.061-2.385-.982-2.385-.798 0-1.657.428-2.578 1.406l2.946-5.075h-1.841l-5.094 8.744-.123.122c-1.35 1.53-2.639 2.752-3.436 2.752-.43 0-.614-.305-.185-.978l3.928-6.849h1.473l.552-.856h-1.534l1.719-2.996h-1.842l-1.718 2.996h-1.657l-.552.856h1.657l-3.683 6.36c-.797 1.345-.245 2.63 1.228 2.63.736 0 1.534-.368 2.332-.98l-.491.796h1.841l2.762-4.831c2.823-3.547 4.05-3.058 3.314-1.712l-2.394 4.158c-.797 1.345-.245 2.63 1.228 2.63 1.105 0 2.332-.857 3.437-1.958.061 1.162 1.043 1.957 2.516 1.957 2.086 0 4.173-1.59 5.646-3.363.061-.367-.246-.611-.491-.734Zm-3.498-2.568c1.043-1.834 2.946-1.529 1.841.367l-.246.428c-.859 1.468-2.086 1.468-2.761 1.223l1.166-2.018Zm70.454 2.568-.123.123c-.675.795-1.473 1.467-2.209 2.018.613-1.774.429-4.403 1.595-6.788l-1.35-.734c-.736 1.04-2.393 3.425-4.112 5.381l-.123.123c-1.35 1.528-2.639 2.751-3.436 2.751-.43 0-.614-.305-.184-.978l3.927-6.849h-1.841l-3.253 5.687c-1.411 1.284-2.454 1.957-2.823 1.835-.429-.184 0-.856.246-1.284l3.559-6.238h-1.841l-2.884 4.953-.123.123c-.859.917-1.841 1.345-2.762 1.345l1.719-2.996c1.104-1.896.061-3.73-1.657-3.73-1.412 0-2.516.55-3.56 2.384l-.92 1.59-.737 1.284-.122.123c-1.351 1.528-3.008 2.751-4.296 2.751-1.105 0-1.78-.733-.982-2.2l.184-.307c1.166.49 3.436.245 4.787-2.14l.245-.428c.982-1.712.062-2.935-1.473-2.935-1.473 0-2.639.795-3.437 2.14l-1.779 3.058-.123.122c-1.534 1.773-2.823 2.874-4.296 3.485l4.112-7.032h-1.105c0-.734-.798-1.773-1.902-1.773-.982 0-2.394.795-3.13 2.14l-1.78 3.058-.123.122c-1.35 1.529-2.639 2.752-3.437 2.752-.429 0-.613-.306-.184-.979l1.841-3.18c.614-1.1.307-1.773-.245-2.507l-1.043-1.223c-.246-.305-.246-.733.122-1.04l-.982-1.039c-1.043.918-1.104 1.957-.49 2.813l.184.184c-.798 1.161-1.903 2.69-3.13 4.097l-.123.122c-.859.917-1.841 1.345-2.762 1.345l1.719-2.996c1.104-1.896.061-3.73-1.657-3.73-1.412 0-2.517.55-3.56 2.385l-.92 1.59-.737 1.284-.123.122c-1.534 1.773-2.823 2.874-4.296 3.485l4.112-7.032h-1.104c0-.734-.798-1.773-1.903-1.773-.982 0-2.393.795-3.13 2.14l-2.577 4.464c-.798 1.345-.246 2.63 1.227 2.63.491 0 1.105-.245 1.78-.612l-.491.856c-2.455.734-4.051 1.773-4.051 3.119 0 1.773 2.701 2.14 4.051-.123l1.411-2.385c1.473-.427 2.885-1.345 4.419-2.751 0 2.324 3.253 2.813 5.217.306h.429c1.105 0 2.823-.673 3.744-1.774.859-1.04 1.595-1.957 3.068-3.913l.246.305c.245.306.307.673.123 1.04l-1.964 3.363c-.798 1.345-.246 2.63 1.227 2.63.921 0 1.964-.612 2.946-1.468 0 .856.552 1.468 1.596 1.468.491 0 1.104-.245 1.779-.612l-.429.734c-2.455.734-4.051 1.773-4.051 3.118 0 1.774 2.701 2.14 4.051-.122l1.411-2.385c1.473-.489 2.946-1.345 4.48-2.813.062 1.162.982 1.957 2.517 1.957 1.472 0 3.007-.856 4.234-1.957-.061 2.385 3.253 2.874 5.217.367h.429c.553 0 1.35-.183 2.026-.55-.491 1.284-.062 2.14.981 2.14.982 0 2.148-.917 3.008-1.773-.184.978.429 1.773 1.595 1.773 1.535 0 3.253-1.59 4.787-3.363 1.044-1.223 1.964-2.507 2.639-3.363-.736 1.896-.307 5.32-2.086 5.32-.614 0-.86-.673-.86-.673l-1.166.612s.307 1.467 2.026 1.467c.184 0 .306 0 .491-.06h.061c1.902-.245 3.744-1.713 5.094-3.303-.062-.306-.368-.611-.675-.673Zm-26.329-2.568c1.044-1.834 2.946-1.529 1.842.367l-.246.428c-.859 1.468-2.086 1.468-2.762 1.223l1.166-2.018Zm-35.104 9.54c-.368.672-.982.61-.982.06 0-.489.43-1.039 1.841-1.59l-.859 1.53Zm.859-4.098c-.429 0-.613-.305-.184-.978l2.578-4.464c.982-1.712 2.946-1.284 2.025.367l-1.411 2.446c-1.105 1.773-2.271 2.63-3.008 2.63Zm11.293-2.751h-.062c-.613 0-1.104.489-1.104 1.1 0 .245.061.428.184.612v.061c-.859 1.468-2.946 1.223-1.903-.734l1.412-2.385.859-1.467c1.289-2.201 3.069-1.345 1.964.55l-1.35 2.263Zm11.537 6.848c-.368.673-.981.612-.981.062 0-.49.429-1.04 1.841-1.59l-.86 1.528Zm.86-4.097c-.43 0-.614-.305-.184-.978l2.577-4.464c.982-1.712 2.946-1.284 2.025.367l-1.411 2.446c-1.105 1.773-2.271 2.63-3.007 2.63Zm18.104-2.751h-.061c-.614 0-1.105.489-1.105 1.1 0 .245.061.428.184.612v.061c-.859 1.468-2.946 1.223-1.902-.734l1.411-2.385.859-1.467c1.289-2.201 3.069-1.345 1.964.55l-1.35 2.263Zm-95.186-2.08H62.107v1.223h17.737v-1.223Zm139.312 0H201.42v1.223h17.736v-1.223Z" fill="#766458"></path><path d="M100.035 0h4.725l-.736 27.456h-8.899l-1.227-11.313-1.228 11.313h-8.96L83.035 0H87.7l.368 22.747h.492L91.566 0h4.664l3.007 22.747h.491L100.035 0Zm19.516 22.747v4.77h-12.827V0h12.827v4.708h-8.163v6.605h6.506v4.708h-6.506v6.665h8.163v.061Zm13.133 0v4.77h-11.231V0h4.665v22.747h6.566Zm9.942-5.381 4.726-1.1v8.316c0 1.59-1.35 2.874-2.885 2.874h-7.057c-1.596 0-2.885-1.345-2.885-2.874V2.874A2.876 2.876 0 0 1 137.41 0h7.057c1.535 0 2.885 1.284 2.885 2.874v5.565l-4.726 1.1V4.647h-3.375v18.04h3.375v-5.32ZM160.117 0c1.534 0 2.884 1.284 2.884 2.874v21.647c0 1.59-1.35 2.874-2.884 2.874h-7.058c-1.595 0-2.884-1.345-2.884-2.874V2.874A2.876 2.876 0 0 1 153.059 0h7.058Zm-1.841 4.708h-3.375v18.04h3.375V4.707ZM178.344 0h4.665v27.456h-4.665V13.942l-1.902 6.971h-4.603l-1.841-6.971v13.514h-4.664V0h4.664l4.173 13.27L178.344 0Zm19.823 22.747v4.77h-12.826V0h12.826v4.708h-8.162v6.605h6.505v4.708h-6.505v6.665h8.162v.061Z" fill="#81B3D3"></path><path d="M27.187 96.372c-2.209-1.834-4.97-3.057-7.917-3.057-2.209 0-5.093 1.284-5.093 3.852 0 2.69 3.252 3.73 5.278 4.342l3.068.917c6.383 1.896 11.354 5.075 11.354 12.474 0 4.525-1.105 9.234-4.726 12.291-3.62 3.058-8.408 4.281-13.01 4.281-5.77 0-11.477-1.957-16.141-5.198l4.971-9.478c3.007 2.63 6.505 4.709 10.617 4.709 2.823 0 5.77-1.407 5.77-4.587 0-3.363-4.665-4.464-7.243-5.197-7.487-2.202-12.397-4.097-12.397-12.964 0-9.295 6.628-15.348 15.834-15.348 4.603 0 10.31 1.467 14.361 3.79l-4.726 9.173Zm29.029-1.712v7.644h13.44v10.089h-13.44v7.889h14.238v10.089H44.31v-45.74h26.144v10.09l-14.238-.06Zm23.075-10.028H96.23c12.765 0 23.321 10.028 23.321 22.87 0 12.841-10.617 22.869-23.321 22.869H79.29v-45.74Zm11.968 35.65h2.7c7.119 0 13.195-3.914 13.195-12.78 0-8.194-5.401-12.78-13.072-12.78h-2.823v25.56Zm84.692-13.637c0 14.798-10.679 25.255-25.408 25.255-14.729 0-25.407-10.457-25.407-25.255 0-13.82 12.212-23.542 25.407-23.542s25.408 9.723 25.408 23.542Zm-38.418.061c0 7.889 5.83 13.637 12.949 13.637s12.949-5.748 12.949-13.637c0-6.298-5.83-12.107-12.949-12.107-7.058 0-12.949 5.809-12.949 12.107Zm44.739-22.074h11.967l21.848 28.006h.123V84.632h11.968v45.739H216.21l-21.848-28.067h-.123v28.067h-11.967v-45.74Zm67.57 37.79-3.192 7.949h-12.642l17.675-45.74h13.01L282 130.372h-12.704l-3.007-7.949h-16.447Zm8.346-23.665h-.123l-4.909 14.554h9.942l-4.91-14.554ZM66.22 175.926c4.725-1.59 5.032-7.46.43-7.46-1.29 0-2.824.917-3.867 2.69l-6.26 10.824c-.307.489-.552.917-.92 1.345-1.596-2.201-1.167-5.504 1.104-6.971l-.92-1.162c-4.91 3.119-3.437 12.046 4.725 12.046 6.935 0 10.188-8.316 5.708-11.312Zm-5.77 9.539c-1.41 0-2.454-.306-3.375-.795.43-.489.798-1.039 1.166-1.651l3.928-6.787.614.061c5.462 1.162 3.314 9.172-2.332 9.172Zm2.517-10.579 1.902-3.241c1.719-2.935 3.867-1.223 2.7.979-.92 1.712-2.209 2.201-4.602 2.262Z" fill="#fff"></path><path d="M85.92 183.448c-.369 1.346.368 2.507 1.902 2.507.92 0 2.087-.611 3.253-1.528.123.917.859 1.528 2.025 1.528 1.227 0 2.578-.856 3.928-2.079-.246 1.223.307 2.079 1.473 2.079 1.288 0 2.7-1.161 3.805-2.201-.246 1.223.491 2.201 1.964 2.201 1.902 0 4.111-2.079 6.075-4.28 0-.061-.061-.061-.061-.122 1.289-1.468 2.393-3.058 3.253-4.159-.921 2.385-.43 6.727-2.639 6.727-.798 0-1.105-.856-1.105-.856l-1.473.734s.43 1.895 2.578 1.895c.245 0 .429 0 .675-.061h.061c1.718-.245 3.375-1.284 4.848-2.568.062 1.529 1.228 2.629 3.13 2.629 2.639 0 5.278-2.079 7.181-4.28-.184-.306-.553-.673-.859-.795l-.185.183c-1.657 1.957-3.805 3.486-5.462 3.486-1.411 0-2.27-.917-1.227-2.752l.245-.428c1.473.611 4.296.306 6.076-2.691l.307-.55c1.227-2.14.061-3.73-1.841-3.73-1.903 0-3.376.978-4.357 2.691l-2.271 3.852h-.062l-.184.183c-.859.979-1.902 1.896-2.823 2.508.737-2.202.553-5.626 2.026-8.561l-1.719-.918c-.982 1.346-3.068 4.342-5.155 6.788l.061.061-.061.122c-1.657 1.957-3.314 3.486-4.357 3.486-.491 0-.798-.367-.246-1.284l4.971-8.683h-2.332l-4.112 7.215c-1.78 1.59-3.13 2.507-3.56 2.324-.552-.245 0-1.101.308-1.59l4.541-7.888h-2.332l-3.682 6.359c-.062-.061-.123-.061-.184-.122l-.185.183c-1.657 1.957-3.314 3.486-4.357 3.486-.49 0-.798-.367-.245-1.284l3.743-6.543h-1.35c.061-.979-.92-2.324-2.455-2.324-1.227 0-3.007.979-3.989 2.691l-2.332 4.036c-.123-.123-.246-.184-.368-.245l-.184.183c-1.657 1.957-3.805 3.486-5.462 3.486-1.412 0-2.271-.917-1.228-2.752l2.394-4.158c1.35-2.324 3.743-1.896 2.332.489l-.307.551h1.902l.307-.551c1.228-2.14.062-3.73-1.84-3.73-1.903 0-3.376.979-4.358 2.691l-2.332 3.974c-.062-.061-.123-.061-.184-.122l-.184.184c-1.657 1.956-3.806 3.485-5.463 3.485-1.411 0-2.27-.917-1.227-2.752l.246-.428c1.472.612 4.296.306 6.075-2.69l.307-.551c1.228-2.14.062-3.73-1.841-3.73s-3.375.979-4.357 2.691l-2.455 4.158c-1.473 2.446-.184 4.77 2.577 4.77 2.026 0 4.112-1.223 5.77-2.813-.062 1.59 1.165 2.813 3.13 2.813 1.963-.123 3.866-1.223 5.523-2.63Zm35.595-5.87c1.35-2.324 3.743-1.896 2.332.489l-.307.55c-1.105 1.896-2.639 1.835-3.498 1.529l1.473-2.568Zm-33.263 5.687 3.252-5.626c1.228-2.14 3.744-1.59 2.578.489l-1.841 3.18c-1.412 2.201-2.823 3.241-3.744 3.241-.49-.061-.798-.367-.245-1.284ZM73.4 177.578c1.35-2.324 3.743-1.896 2.332.489l-.307.55c-1.105 1.896-2.639 1.835-3.498 1.529l1.473-2.568Zm78.923 8.376c2.639 0 5.278-2.079 7.18-4.28-.184-.306-.552-.673-.859-.795l-.184.183c-1.657 1.957-3.805 3.486-5.462 3.486-1.411 0-2.271-.918-1.227-2.752l.245-.428c1.473.611 4.296.306 6.076-2.691l.307-.55c1.227-2.14.061-3.73-1.841-3.73-1.903 0-3.376.978-4.358 2.69l-2.27 3.853s-.062 0-.062-.061l-.184.183c-1.657 1.957-3.314 3.486-4.357 3.486-.491 0-.798-.367-.246-1.285l3.376-5.87c.982-1.773.061-3.057-1.228-3.057-.982 0-2.086.55-3.252 1.773l3.743-6.421h-2.393l-6.567 11.313c-.061-.061-.184-.122-.245-.184l-.185.184c-1.657 1.957-3.314 3.485-4.357 3.485-.491 0-.798-.366-.245-1.284l4.971-8.683h1.902l.675-1.101h-1.902l2.209-3.791h-2.332l-2.209 3.791h-2.087l-.675 1.101h2.148l-4.664 8.072c-.982 1.712-.307 3.302 1.595 3.302 1.166 0 2.394-.734 3.683-1.835l-.921 1.59h2.332l3.56-6.115c3.559-4.464 5.155-3.913 4.173-2.201l-3.007 5.259c-.982 1.712-.307 3.302 1.595 3.302 1.412 0 3.008-1.101 4.48-2.568 0 1.528 1.167 2.629 3.069 2.629Zm1.903-8.377c1.35-2.324 3.743-1.896 2.332.489l-.307.55c-1.105 1.896-2.639 1.835-3.498 1.529l1.473-2.568Zm68.674 3.302-.184.184c-1.657 1.956-3.314 3.485-4.358 3.485-.491 0-.797-.367-.245-1.284l7.855-13.575h-2.332l-3.437 5.87c-.429-.673-1.166-1.223-2.148-1.223-1.227 0-3.007.979-3.989 2.691l-2.27 3.913c-.062 0-.123-.061-.123-.061l-.184.184c-1.657 1.956-3.314 3.485-4.358 3.485-.491 0-.797-.367-.245-1.284l3.375-5.87c.982-1.774.062-3.058-1.227-3.058-.982 0-2.087.55-3.253 1.712l.859-1.528h-2.332l-3.743 6.42c-.062-.061-.123-.122-.246-.122l-.184.183c-1.657 1.957-3.314 3.486-4.357 3.486-.491 0-.798-.367-.246-1.284l3.744-6.543h-1.166c.061-.979-.921-2.324-2.455-2.324-1.227 0-3.007.979-3.989 2.691l-2.271 3.852-.123.122c-1.657 1.957-3.314 3.486-4.357 3.486-.491 0-.798-.367-.245-1.284l2.332-4.036c.798-1.407.429-2.201-.307-3.119l-1.289-1.59c-.307-.428-.307-.917.123-1.345l-1.228-1.345c-1.35 1.162-1.411 2.507-.613 3.547l.184.244c-1.044 1.468-2.394 3.424-3.928 5.198l.184.183c-1.902 2.202-3.559 3.608-5.4 4.403l2.945-5.014h-2.27l-.246.428c-1.227 2.14-2.639 3.73-4.48 3.73-1.596 0-1.902-1.59-.491-3.975l.675-1.162c.43.062.859.123 1.35.123 8.285 0 12.275-11.068 4.971-11.068-1.288 0-2.823.917-3.866 2.69l-3.621 6.237c-1.35-.733-2.087-2.017-2.087-3.302 0-1.1.491-2.14 1.473-2.935l-.736-1.345c-1.657 1.162-2.394 2.752-2.394 4.342 0 1.834 1.044 3.607 2.946 4.586l-.675 1.223c-1.657 2.813-1.35 5.931 1.964 5.931a4.69 4.69 0 0 0 2.516-.734l-.613 1.04c-3.13.978-5.094 2.201-5.094 3.975 0 2.201 3.437 2.69 5.094-.184l1.779-3.057c2.394-.734 4.787-2.385 7.365-5.381-.062-.062-.062-.123-.123-.245 1.043-1.223 1.903-2.385 3.682-4.77l.307.367c.307.367.43.856.123 1.346l-2.455 4.28c-.982 1.712-.307 3.302 1.596 3.302 1.166 0 2.455-.734 3.682-1.834 0 1.039.675 1.834 2.025 1.834.921 0 2.087-.611 3.253-1.529.123.918.859 1.529 2.025 1.529 1.105 0 2.332-.673 3.498-1.712l-.859 1.467h2.332l3.56-6.176c3.559-4.464 5.155-3.852 4.112-2.14l-3.008 5.259c-.981 1.712-.306 3.302 1.596 3.302 1.227 0 2.578-.856 3.928-2.018-.123 1.162.614 2.018 2.025 2.018.921 0 2.087-.611 3.253-1.529.122.918.859 1.529 2.025 1.529 1.902 0 4.112-2.079 6.076-4.28-.246-.123-.675-.49-.982-.612Zm-47.808-8.683c.675-1.162 1.473-1.712 2.086-1.712 3.683 0 1.105 7.521-4.971 7.521h-.491l3.376-5.809Zm-4.971 17.489c-.491.856-1.289.733-1.289.122 0-.612.552-1.284 2.332-1.957l-1.043 1.835Zm24.364-8.439c-1.412 2.201-2.823 3.241-3.744 3.241-.491 0-.797-.367-.245-1.284l3.253-5.626c1.227-2.14 3.743-1.59 2.577.489l-1.841 3.18Zm22.523-.122c-1.411 2.323-2.823 3.363-3.805 3.363-.491 0-.798-.367-.245-1.284l3.252-5.626c1.228-2.14 3.744-1.59 2.578.489l-1.78 3.058Zm-71.865 21.769-.184.183c-1.657 1.957-3.314 3.485-4.358 3.485-.491 0-.798-.366-.245-1.284l3.375-5.87c.982-1.773.062-3.057-1.227-3.057-.982 0-2.087.55-3.253 1.712l.859-1.529h-2.332l-3.743 6.482c-.123-.061-.185-.122-.307-.184l-.184.184c-1.044 1.162-2.333 1.712-3.499 1.712l2.21-3.791c1.411-2.446.123-4.709-2.087-4.709-1.78 0-3.191.734-4.541 3.058l-1.166 1.957-.982 1.712c-.062-.061-.123-.061-.184-.123l-.184.184c-1.903 2.201-3.56 3.608-5.401 4.403l6.382-10.885h-2.332l-4.112 7.154c-1.779 1.652-3.191 2.569-3.62 2.385-.553-.244 0-1.1.306-1.59l4.542-7.888h-2.332l-3.744 6.421c-.061-.061-.123-.061-.184-.122l-.184.183c-1.657 1.957-3.314 3.485-4.357 3.485-.491 0-.798-.366-.246-1.284l3.376-5.87c.981-1.773.061-3.057-1.228-3.057-.982 0-2.087.55-3.253 1.712l.86-1.529h-2.332l-3.744 6.421c-.061-.061-.123-.123-.246-.123l-.184.184c-1.657 1.957-3.314 3.485-4.357 3.485-.491 0-.798-.367-.246-1.284l3.744-6.543h-1.35c.061-.978-.92-2.323-2.455-2.323-1.227 0-3.007.978-3.989 2.69l-2.394 4.158a5.655 5.655 0 0 0-.49-.305l-.185.183c-1.657 1.957-3.743 3.485-6.014 3.485-1.596 0-2.578-1.589-1.166-3.974l.675-1.162c.43.061.86.122 1.35.122 2.455 0 5.278-1.284 7.12-4.464.674-1.161.92-2.201.92-3.118 0-2.079-1.35-3.486-3.069-3.486-1.288 0-2.823.917-3.866 2.691l-3.621 6.237c-1.35-.734-2.087-2.018-2.087-3.302 0-1.101.491-2.14 1.473-2.935l-.736-1.345c-1.657 1.161-2.394 2.751-2.394 4.341 0 1.835 1.044 3.608 2.946 4.586l-.675 1.223c-1.657 2.813-.675 5.932 2.64 5.932 2.577 0 4.54-1.162 6.136-2.691-.49 1.468.246 2.691 1.903 2.691.92 0 2.086-.612 3.252-1.529.123.917.86 1.529 2.026 1.529 1.104 0 2.332-.673 3.498-1.712l-.86 1.467h2.333l3.559-6.176c3.56-4.464 5.155-3.852 4.112-2.14l-3.007 5.259c-.982 1.712-.307 3.302 1.596 3.302 1.227 0 2.638-.856 3.989-2.079-.307 1.284.306 2.079 1.473 2.079 1.104 0 2.393-.917 3.436-1.896l-1.288 2.202c-3.13.917-5.156 2.201-5.156 3.974 0 2.202 3.437 2.691 5.094-.183l1.78-3.058c1.964-.611 3.866-1.834 5.892-3.791-.307 3.241 3.989 3.975 6.628.673h.491c.859 0 2.025-.306 3.068-.918l-1.534 2.691h2.332l3.559-6.176c3.56-4.464 5.156-3.852 4.112-2.14l-3.007 5.259c-.982 1.712-.307 3.302 1.596 3.302 1.902 0 4.112-2.079 6.076-4.281-.062-.183-.491-.55-.798-.672Zm-57.935-8.684c.675-1.161 1.473-1.712 2.087-1.712.86 0 1.289.551 1.289 1.407 0 2.14-2.64 6.053-6.26 6.053h-.491l3.375-5.748Zm8.224 9.05c-1.411 2.202-2.823 3.241-3.743 3.241-.491 0-.798-.367-.246-1.284l3.253-5.626c1.227-2.14 3.743-1.589 2.577.49l-1.84 3.179Zm17.675 8.439c-.491.856-1.289.734-1.289.122 0-.611.553-1.284 2.332-1.956l-1.043 1.834Zm15.711-8.683h-.123c-.736 0-1.35.611-1.35 1.406 0 .306.061.551.246.795v.061c-1.105 1.896-3.744 1.529-2.394-.917l1.78-3.057 1.105-1.896c1.657-2.752 3.866-1.651 2.454.734l-1.718 2.874Zm70.27.673c-.123-.366-.552-.733-.859-.795l-.184.184c-.86.978-1.903 1.896-2.824 2.507.737-2.201.553-5.626 2.026-8.561l-1.719-.917c-.982 1.345-3.068 4.342-5.155 6.787l-.184.184c-1.657 1.957-3.314 3.485-4.357 3.485-.491 0-.982-.489-.982-1.589v-.979c1.657.184 3.375-.856 4.48-2.752l.614-1.1c2.148-3.73-1.351-4.953-3.744-2.752l3.314-5.748h-2.332l-6.628 11.496a1.873 1.873 0 0 0-.43-.306l-.184.184c-1.657 1.957-3.805 3.485-5.462 3.485-1.411 0-2.271-.917-1.227-2.751l2.393-4.159c1.35-2.323 3.744-1.895 2.332.49l-.307.55h1.903l.307-.55c1.227-2.141.061-3.73-1.841-3.73-1.903 0-3.376.978-4.358 2.69l-2.271 3.914c-.061 0-.122-.062-.122-.062l-.184.184c-1.657 1.957-3.314 3.485-4.358 3.485-.491 0-.798-.366-.245-1.284l4.971-8.683h-2.332l-4.112 7.216c-1.78 1.59-3.13 2.507-3.56 2.323-.552-.244 0-1.1.307-1.589l4.542-7.889h-2.332l-4.542 7.766c-.491.428-1.043.856-1.473 1.223.737-2.201.553-5.626 2.025-8.561l-1.718-.917c-.982 1.345-6.321 8.439-8.469 10.885.184.305.552.55.859.795 1.35-1.529 5.769-7.216 6.567-8.317-.921 2.385-.43 6.727-2.639 6.727-.798 0-1.105-.856-1.105-.856l-1.473.733s.43 1.896 2.578 1.896c.245 0 .429 0 .675-.061h.061c1.166-.184 2.332-.673 3.437-1.468 0 .918.552 1.529 1.534 1.529 1.289 0 2.701-1.162 3.805-2.201-.245 1.223.491 2.201 1.964 2.201 1.473 0 3.069-1.162 4.603-2.691 0 1.529 1.227 2.691 3.13 2.691 1.902 0 3.744-1.04 5.401-2.446l-1.289 2.263h2.332l2.639-4.587v1.835c0 1.957.368 2.996 2.271 2.996 1.902 0 4.111-2.079 6.075-4.28 1.351-1.529 2.455-3.119 3.314-4.22-.92 2.385-.429 6.727-2.639 6.727-.797 0-1.104-.856-1.104-.856l-1.473.734s.429 1.895 2.577 1.895c.246 0 .43 0 .676-.061h.061c2.332-.428 4.725-2.324 6.444-4.342Zm-15.466-1.834.675-1.162c2.701-3.73 4.542-2.69 3.683-1.284l-1.105 1.896c-.675 1.223-2.7 2.079-3.253.55Zm15.404 3.424a1.36 1.36 0 0 0-1.35 1.345c0 .734.553 1.346 1.35 1.346.737 0 1.351-.551 1.351-1.346a1.36 1.36 0 0 0-1.351-1.345Zm.123-.918h2.332l7.304-12.658h-2.333l-7.303 12.658ZM49.22 169.751c0 .183-.062.366-.123.55a1.332 1.332 0 0 1-.307.489 3.408 3.408 0 0 1-.491.367 2.22 2.22 0 0 1-.675.122 1.71 1.71 0 0 1-.798-.183c-.245-.122-.49-.245-.675-.428-.184-.184-.245-.367-.368-.612a3.055 3.055 0 0 1-.123-.795c0-.55.123-.978.307-1.467.184-.428.43-.856.798-1.162.123-.122.307-.306.49-.428.185-.122.369-.245.553-.306.184-.061.307-.183.43-.244.122-.062.184-.062.245-.123l.86 1.223c-.123.061-.308.123-.492.245-.184.061-.368.183-.552.306-.184.122-.307.305-.43.489a1.029 1.029 0 0 0-.184.611c.43 0 .737.123 1.044.367.368.184.49.551.49.979Zm4.848 0c0 .183-.061.366-.123.55a1.33 1.33 0 0 1-.307.489 3.408 3.408 0 0 1-.49.367c-.185.061-.43.122-.676.122a1.71 1.71 0 0 1-.798-.183c-.245-.122-.49-.245-.675-.428-.122-.184-.245-.367-.368-.612-.061-.244-.123-.489-.123-.795 0-.55.123-.978.307-1.467.184-.428.43-.856.798-1.162.123-.122.307-.306.491-.428s.368-.245.552-.306c.184-.061.307-.183.43-.244.123-.062.184-.062.245-.123l.86 1.223c-.123.061-.307.123-.491.245-.184.061-.369.183-.553.306-.184.122-.307.305-.43.489a1.03 1.03 0 0 0-.183.611c.43 0 .736.123 1.043.367.307.184.49.551.49.979Zm162.695 36.016c0-.183.061-.367.122-.55.062-.184.184-.367.307-.489.123-.123.307-.245.491-.367a2.22 2.22 0 0 1 .675-.122c.307 0 .553.061.798.183.246.122.491.245.675.428.184.183.246.367.368.612.062.244.123.489.123.794 0 .551-.123.979-.307 1.468-.184.428-.429.856-.798 1.162a3.414 3.414 0 0 1-.491.428c-.184.122-.368.244-.552.306-.184.061-.307.183-.429.244-.123.061-.185.061-.246.123l-.859-1.223c.123-.062.307-.123.491-.245.184-.061.368-.183.552-.306.184-.122.307-.306.43-.489s.184-.367.184-.611c-.43 0-.737-.123-1.043-.367-.307-.184-.491-.551-.491-.979Zm-4.787 0c0-.183.061-.367.122-.55.062-.184.184-.367.307-.489.123-.123.307-.245.491-.367a2.22 2.22 0 0 1 .675-.122c.307 0 .553.061.798.183.246.122.491.245.675.428.123.183.246.367.368.612.062.244.123.489.123.794 0 .551-.123.979-.307 1.468-.184.428-.429.856-.798 1.162-.122.122-.306.306-.49.428-.185.122-.369.244-.553.306-.184.061-.307.183-.429.244-.123.061-.185.061-.246.123l-.859-1.223c.184-.062.307-.123.491-.245.184-.061.368-.183.552-.306.184-.122.307-.306.43-.489s.184-.367.184-.611c-.43 0-.737-.123-1.043-.367-.369-.184-.491-.551-.491-.979Z" fill="#fff"></path></svg><svg fill="none" id="icons_checkbox" viewBox="0 0 22 16"><path d="M21.805 1.307 20.76.222c-.285-.296-.856-.296-1.141 0L8.298 11.957 2.403 5.843c-.286-.296-.856-.296-1.142 0L.214 6.928c-.285.295-.285.887 0 1.183l7.419 7.692c.19.197.38.197.57.197.191 0 .381-.099.571-.197L21.615 2.49c.476-.296.476-.789.19-1.183Z" fill="#333"></path></svg><svg fill="none" id="icons_food" viewBox="0 0 40 40"><path d="M37.74 25.85H2.26A2.23 2.23 0 0 0 0 28.03v1.77c0 1.17 1 2.13 2.26 2.13h.52v.5a5.12 5.12 0 0 0 5.2 5.02h24.04c2.89 0 5.2-2.28 5.2-5.01v-.51h.52c1.21 0 2.26-.96 2.26-2.18v-1.77c0-1.12-1-2.13-2.26-2.13Zm-2.04 6.59c0 1.92-1.63 3.49-3.63 3.49H7.93c-2 0-3.63-1.57-3.63-3.5v-.5h31.4v.5Zm2.73-2.69c0 .36-.32.66-.69.66H2.26a.68.68 0 0 1-.69-.66v-1.77c0-.3.32-.61.69-.61H37.8c.36 0 .68.3.68.66v1.72h-.05Zm-29.93-8 2.84 2.02 2.89-2.02 2.88 2.02L20 21.75l2.83 2.02 2.9-2.02 2.88 2.02 2.89-2.02 2.88 2.02 3.31-2.38-.9-1.21-2.4 1.67-2.9-2.03-2.88 2.03-2.89-2.03-2.89 2.03L20 19.82l-2.89 2.03-2.88-2.03-2.9 2.03-2.83-2.03-2.88 2.03-2.42-1.67-.94 1.21 3.36 2.38 2.88-2.02Zm28.72-3.45c0-.3.05-1.31 0-1.52C36.85 8.88 29.29 2.55 20 2.55c-9.3 0-16.9 6.33-17.27 14.23v1.52h34.49ZM20 4.07c8.4 0 15.33 5.67 15.64 12.71H4.3C4.67 9.74 11.6 4.07 20 4.07Z" fill="#81B3D2"></path><path d="M20 11.16c.58 0 1.05-.45 1.05-1.01S20.58 9.14 20 9.14c-.58 0-1.05.45-1.05 1 0 .57.47 1.02 1.05 1.02Zm-4.2-2.48c.58 0 1.05-.45 1.05-1.01s-.47-1.02-1.05-1.02c-.58 0-1.05.46-1.05 1.02s.47 1 1.05 1Zm8.4 0c.58 0 1.05-.45 1.05-1.01s-.47-1.02-1.05-1.02c-.58 0-1.05.46-1.05 1.02s.47 1 1.05 1Z" fill="#81B3D2"></path></svg><svg fill="none" id="icons_housing" viewBox="0 0 40 40"><path d="M15.402 34.389h8.353V22.23h-8.353v12.158Zm6.839-1.475h-5.325v-9.208h5.273v9.208h.052Z" fill="#81B3D2"></path><path d="m38.404 21.628 1.096-1.069-5.169-5.036V1.788h-7.205v6.715l-7.152-6.918L.5 20.61l1.096 1.069L5.67 17.71v19.23H3.633v1.475h33.361V36.94h-2.663V17.66l4.073 3.968ZM28.64 3.314h4.124v10.734l-4.124-4.019V3.314Zm4.176 33.575H7.235V16.185L19.974 3.72l12.791 12.464v20.704h.052Z" fill="#81B3D2"></path><path d="M15.558 15.006c0 2.188 1.828 3.968 4.02 3.968 2.245 0 4.073-1.78 4.073-3.968 0-2.187-1.828-3.917-4.073-3.917s-4.02 1.73-4.02 3.917Zm4.02-2.543c1.41 0 2.61 1.119 2.61 2.543 0 1.374-1.148 2.544-2.61 2.544-1.41 0-2.61-1.12-2.61-2.544 0-1.373 1.2-2.543 2.61-2.543ZM10.39 22.23H8.822v1.985h1.566V22.23Zm3.08 0h-1.566v1.985h1.566V22.23Zm-3.08 3.052H8.822v1.984h1.566v-1.984Zm3.08 0h-1.566v1.984h1.566v-1.984Zm13.574-3.052h-1.566v1.985h1.566V22.23Zm3.133 0H28.61v1.985h1.566V22.23Zm-3.133 3.052h-1.566v1.984h1.566v-1.984Zm3.133 0H28.61v1.984h1.566v-1.984Z" fill="#81B3D2"></path></svg><svg fill="none" id="icons_like" viewBox="0 0 23 21"><path d="m12.964 3.78-.628 3.045-.627 2.625h9.096v2.205L17.773 18.9h-9.41V8.4l4.6-4.62ZM2.09 10.5v8.4-8.4ZM13.8 0 6.9 6.93c-.418.315-.627.84-.627 1.47v10.5c0 1.155.94 2.1 2.09 2.1h9.41c.836 0 1.568-.525 1.881-1.26l3.137-7.455c.104-.21.104-.525.104-.735v-2.1H23c0-1.155-.94-2.1-2.09-2.1h-6.587l1.045-4.83v-.315c0-.42-.209-.84-.418-1.155L13.8 0ZM4.182 8.4H0V21h4.182V8.4Z" fill="#000"></path></svg><svg fill="none" id="icons_mail" viewBox="0 0 16 12"><path d="M8 8c-.3 0-.5-.1-1-.3L0 4v7c0 .5.5 1 1 1h14c.5 0 1-.5 1-1V4L9 7.7c-.5.2-.7.3-1 .3Zm7-8H1C.5 0 0 .5 0 1v.8L8 6l8-4.2V1c0-.5-.5-1-1-1Z" fill="#000"></path></svg><svg fill="none" id="icons_phone" viewBox="0 0 18 18"><path d="M3.6 7.8c1.4 2.8 3.8 5.1 6.6 6.6l2.2-2.2c.3-.3.7-.4 1-.2 1.1.4 2.3.6 3.6.6.6 0 1 .4 1 1V17c0 .6-.4 1-1 1C7.6 18 0 10.4 0 1c0-.6.4-1 1-1h3.5c.6 0 1 .4 1 1 0 1.2.2 2.4.6 3.6.1.3 0 .7-.2 1L3.6 7.8Z" fill="#010101"></path></svg><svg fill="none" id="icons_souvenirs" viewBox="0 0 40 40"><path d="M34.58 12.2h-12.4c6.91-3.44 7.47-5.62 7.22-6.83-.56-1.98-2.85-3.5-4.98-2.69-2.8 1.07-3.56 5.22-4.32 8.2-.96-3.03-1.88-6.88-4.06-8.85A3.7 3.7 0 0 0 13.14 1c-2.03.2-4.92 2.69-3.7 5.47 1.11 2.69 4.82 4.4 7.3 5.78H5.43c-.81 0-1.42.65-1.42 1.41v5.68c0 .8.66 1.42 1.42 1.42h.15V39h28.96V20.77h.05c.81 0 1.42-.66 1.42-1.42v-5.68c0-.8-.66-1.46-1.42-1.46Zm-9.35-8.25c1.07-.15 2.5.66 2.64 1.62.2 1.37-1.67 2.63-2.54 3.2-1.27.85-2.49 1.3-3.65 2.02.4-1.88 1.27-6.54 3.55-6.84ZM13.75 8.91c-1.12-.76-3.25-2.23-3.2-3.9.05-1.82 2.9-3.29 4.42-1.92 1.93 1.67 2.85 5.57 3.56 8.3-1.63-.8-3.15-1.41-4.78-2.48Zm3 28.57h-9.7V20.77h9.7v16.71Zm0-18.23H5.52v-5.52h11.23v5.52Zm5.08 18.23h-3.6V13.73h3.6v23.75Zm11.17 0h-9.65V20.77h9.7v16.71H33Zm1.48-18.23H23.35v-5.52h11.13v5.52Z" fill="#81B3D2"></path></svg><svg fill="none" id="icons_telegram" viewBox="0 0 24 24"><path d="m22.44 4.622-3.17 14.944c-.239 1.055-.862 1.317-1.748.82l-4.828-3.558-2.33 2.242c-.258.258-.473.473-.97.473l.347-4.917 8.948-8.086c.39-.346-.084-.54-.604-.192L7.022 13.314 2.26 11.823c-1.036-.323-1.055-1.036.216-1.533l18.627-7.177c.863-.323 1.617.192 1.336 1.51Z" fill="#fff"></path></svg><svg fill="none" id="icons_vk" viewBox="0 0 24 24"><g clip-path="url(#icons_vk_0)"><path fill-rule="evenodd" clip-rule="evenodd" d="M23.45 5.948c.166-.546 0-.948-.795-.948H20.03c-.668 0-.976.347-1.143.73 0 0-1.335 3.196-3.226 5.272-.612.602-.89.793-1.224.793-.167 0-.418-.191-.418-.738V5.948c0-.656-.184-.948-.74-.948H9.151c-.417 0-.668.304-.668.593 0 .621.946.765 1.043 2.513v3.798c0 .833-.153.984-.487.984-.89 0-3.055-3.211-4.34-6.885C4.45 5.288 4.198 5 3.527 5H.9c-.75 0-.9.347-.9.73 0 .682.89 4.07 4.145 8.551C6.315 17.341 9.37 19 12.153 19c1.669 0 1.875-.368 1.875-1.003v-2.313c0-.737.158-.884.687-.884.39 0 1.057.192 2.615 1.667C19.11 18.216 19.403 19 20.405 19h2.625c.75 0 1.126-.368.91-1.096-.238-.724-1.088-1.775-2.215-3.022-.612-.71-1.53-1.475-1.809-1.858-.389-.491-.278-.71 0-1.147 0 0 3.2-4.426 3.533-5.929h.001Z" fill="#fff"></path></g><defs><clipPath id="icons_vk_0"><path fill="#fff" d="M0 0h24v24H0z"></path></clipPath></defs></svg><svg fill="none" id="icons_youtube" viewBox="0 0 24 24"><path d="M19.18 5H4.81C3.31 5 2 6.3 2 7.8v8.3C2 17.7 3.3 19 4.81 19h14.37A2.8 2.8 0 0 0 22 16.2V7.8c.1-1.5-1.2-2.8-2.8-2.8ZM9.03 15.4V8.6l6.84 3.4-6.84 3.4Z" fill="#fff"></path></svg></svg>